<svg id="Bold" height="512" viewBox="0 0 24 24" width="512" xmlns="http://www.w3.org/2000/svg"><path d="m12 24c-6.617 0-12-5.383-12-12s5.383-12 12-12 12 5.383 12 12-5.383 12-12 12zm0-22c-5.514 0-10 4.486-10 10s4.486 10 10 10 10-4.486 10-10-4.486-10-10-10z"/><path d="m17.49 12-4.37-4.47c-.33-.34-.8-.53-1.27-.53h-.01l-3.44.01c-.77 0-1.39.62-1.39 1.39l-.01 3.44c0 .48.19.95.54 1.28l4.46 4.37c.34.34.79.51 1.24.51.46 0 .92-.18 1.26-.52l2.98-2.98c.69-.68.69-1.81.01-2.5zm-7.52-1.03c-.56 0-1-.45-1-1 0-.56.44-1 1-1 .55 0 1 .44 1 1 0 .55-.45 1-1 1z"/></svg>